<?xml version="1.0" encoding="UTF-8" standalone="no"?>
<!DOCTYPE svg PUBLIC "-//W3C//DTD SVG 1.1//EN" "http://www.w3.org/Graphics/SVG/1.1/DTD/svg11.dtd">
<svg width="100%" height="100%" viewBox="0 0 13111 9727" version="1.1" xmlns="http://www.w3.org/2000/svg" xmlns:xlink="http://www.w3.org/1999/xlink" xml:space="preserve" xmlns:serif="http://www.serif.com/" style="fill-rule:evenodd;clip-rule:evenodd;stroke-linejoin:round;stroke-miterlimit:2;">
    <g transform="matrix(1,0,0,1,40488,-4603.58)">
        <g transform="matrix(14.0144,0,0,14.0144,-196996,-56940.1)">
            <g transform="matrix(1,0,0,1,11055.2,2238.5)">
                <g transform="matrix(1,7.21895e-17,-7.21895e-17,1,-1210.7,178.21)">
                    <path d="M1528.03,2189.25L1495.5,2208.64L1469.97,2240.97L1436.74,2442.85L1451.49,2478.27L1488.55,2490.79L1613.53,2487.49L1676.28,2489.46L1727.76,2476.88L1737.54,2443.46L1753.22,2381.37C1753.22,2381.37 1764.78,2283.59 1766.15,2278.49C1767.51,2273.39 1781.69,2212.52 1781.69,2212.52C1781.69,2212.52 1757.61,2189.07 1754.06,2188.36C1750.51,2187.64 1701.52,2182.43 1692.1,2184.17C1682.69,2185.9 1559.91,2196.9 1559.91,2196.9L1528.03,2189.25Z"/>
                </g>
                <g transform="matrix(0.202296,0,0,0.202296,4944.98,-1786.14)">
                    <g transform="matrix(4.99258,-5.77076e-32,-1.11294,6.32926,-23272.5,16455.1)">
                        <rect x="188.314" y="652.385" width="77.585" height="214.503" style="fill:rgb(225,51,4);"/>
                    </g>
                    <g transform="matrix(4.99258,-5.77076e-32,-1.11294,6.32926,-22786.3,16455.1)">
                        <rect x="188.314" y="652.385" width="77.585" height="214.503" style="fill:rgb(128,215,80);"/>
                    </g>
                    <g transform="matrix(4.99258,-5.77076e-32,-1.11294,6.32926,-22300.1,16455.1)">
                        <rect x="188.314" y="652.385" width="77.585" height="214.503" style="fill:rgb(0,7,215);"/>
                    </g>
                </g>
                <g transform="matrix(2.75679,0,-0.486097,2.75679,173.922,-437.516)">
                    <path d="M480.031,1176.13C481.92,1177.24 483.262,1179.02 483.812,1181.14C484.95,1185.52 482.313,1190.01 477.936,1191.14C477.249,1191.32 476.552,1191.41 475.86,1191.41C474.419,1191.41 472.996,1191.02 471.719,1190.27C469.831,1189.16 468.487,1187.38 467.936,1185.26C467.581,1183.89 467.59,1182.49 467.935,1181.16L384.269,1087.69L344.104,1087.69L335.123,1092.32L335.123,1099.25L344.097,1103.88L376.313,1103.88L440.087,1175.1C441.944,1174.85 443.813,1175.24 445.434,1176.23C447.303,1177.37 448.617,1179.17 449.134,1181.3C449.648,1183.43 449.304,1185.63 448.162,1187.5C447.021,1189.37 445.219,1190.69 443.091,1191.2C442.445,1191.36 441.793,1191.43 441.146,1191.43C439.657,1191.43 438.193,1191.03 436.889,1190.23C435.02,1189.09 433.705,1187.29 433.191,1185.16C432.862,1183.8 432.885,1182.42 433.239,1181.11L372.242,1113L344.111,1113L335.123,1117.63L335.123,1120.02C335.123,1129.37 327.52,1136.97 318.175,1136.97L315.787,1136.97L311.153,1145.94L311.153,1176.39C314.416,1178.57 315.738,1182.86 314.083,1186.55C312.72,1189.6 309.72,1191.4 306.584,1191.4C305.466,1191.4 304.33,1191.17 303.245,1190.69C299.118,1188.84 297.264,1183.98 299.113,1179.85C299.765,1178.39 300.8,1177.22 302.041,1176.39L302.041,1145.94L297.408,1136.97L290.476,1136.97L285.843,1145.94L285.843,1176.39C286.858,1177.07 287.741,1177.98 288.39,1179.1C290.651,1183.02 289.306,1188.04 285.388,1190.31C284.1,1191.05 282.691,1191.4 281.301,1191.4C278.464,1191.4 275.702,1189.93 274.185,1187.3C272.014,1183.55 273.173,1178.77 276.731,1176.39L276.731,1145.94L272.099,1136.97L265.166,1136.97L260.533,1145.94L260.533,1176.39C262.208,1177.51 263.406,1179.18 263.915,1181.14C264.466,1183.26 264.158,1185.47 263.048,1187.36C261.938,1189.25 260.159,1190.59 258.038,1191.14C257.351,1191.32 256.655,1191.41 255.963,1191.41C254.52,1191.41 253.098,1191.02 251.822,1190.27C249.932,1189.16 248.59,1187.38 248.039,1185.26C247.487,1183.14 247.796,1180.93 248.905,1179.05C249.543,1177.96 250.405,1177.07 251.421,1176.39L251.421,1145.94L246.788,1136.97L239.855,1136.97L235.223,1145.94L235.223,1176.39C236.898,1177.51 238.096,1179.18 238.605,1181.14C239.156,1183.26 238.848,1185.47 237.738,1187.36C236.628,1189.25 234.849,1190.59 232.728,1191.14C232.042,1191.32 231.345,1191.41 230.653,1191.41C229.21,1191.41 227.789,1191.02 226.512,1190.27C224.623,1189.16 223.28,1187.38 222.728,1185.26C222.178,1183.14 222.485,1180.93 223.596,1179.05C224.233,1177.96 225.095,1177.07 226.11,1176.39L226.11,1145.94L221.478,1136.97L219.089,1136.97C209.744,1136.97 202.14,1129.37 202.14,1120.02L202.14,1117.63L193.115,1112.97L188.317,1112.97C187.238,1114.6 185.589,1115.85 183.559,1116.38C182.87,1116.56 182.178,1116.64 181.499,1116.64C177.852,1116.64 174.516,1114.19 173.558,1110.5C173.007,1108.38 173.315,1106.17 174.426,1104.29C175.535,1102.4 177.314,1101.06 179.435,1100.5C181.554,1099.95 183.764,1100.26 185.652,1101.37C186.727,1102 187.618,1102.86 188.294,1103.86L193.206,1103.86L202.14,1099.25L202.14,1092.32L193.115,1087.66L188.321,1087.66C187.202,1089.35 185.533,1090.56 183.558,1091.07C182.871,1091.25 182.174,1091.34 181.482,1091.34C180.04,1091.34 178.618,1090.95 177.342,1090.2C175.453,1089.09 174.108,1087.31 173.558,1085.19C173.007,1083.07 173.315,1080.86 174.426,1078.98C175.535,1077.09 177.314,1075.74 179.435,1075.19C181.554,1074.64 183.764,1074.95 185.652,1076.06C186.727,1076.69 187.618,1077.55 188.294,1078.55L193.206,1078.55L202.14,1073.94L202.14,1067.01L193.114,1062.35L188.317,1062.35C187.238,1063.98 185.589,1065.23 183.558,1065.76C182.87,1065.94 182.178,1066.02 181.499,1066.02C177.852,1066.02 174.516,1063.57 173.558,1059.88C173.007,1057.76 173.315,1055.56 174.426,1053.67C175.535,1051.78 177.314,1050.43 179.435,1049.88C182.889,1048.99 186.4,1050.44 188.29,1053.24L193.207,1053.24L202.14,1048.63L202.14,1041.7L193.114,1037.04L188.317,1037.04C187.238,1038.67 185.589,1039.92 183.558,1040.45C182.871,1040.63 182.174,1040.72 181.483,1040.72C180.04,1040.72 178.618,1040.33 177.342,1039.58C175.453,1038.47 174.108,1036.69 173.558,1034.57C173.007,1032.45 173.315,1030.24 174.426,1028.36C175.535,1026.47 177.314,1025.12 179.434,1024.57C181.554,1024.02 183.762,1024.33 185.652,1025.44C186.727,1026.07 187.618,1026.93 188.294,1027.93L193.206,1027.93L202.14,1023.32L202.14,1020.93C202.14,1011.59 209.744,1003.99 219.089,1003.99L221.477,1003.99L226.11,995.007L226.11,954.662C224.502,953.583 223.253,951.956 222.728,949.939C222.178,947.818 222.485,945.61 223.596,943.722C224.706,941.832 226.485,940.489 228.606,939.939C232.985,938.803 237.469,941.44 238.605,945.816C239.504,949.276 238.039,952.798 235.223,954.686L235.223,995.007L239.856,1003.99L246.787,1003.99L251.421,995.007L251.421,954.69C250.2,953.876 249.213,952.752 248.567,951.393C247.629,949.415 247.516,947.188 248.251,945.125C248.987,943.061 250.481,941.406 252.46,940.468C254.44,939.529 256.665,939.416 258.73,940.152C260.793,940.886 262.447,942.381 263.386,944.36C264.326,946.339 264.439,948.567 263.703,950.63C263.104,952.313 261.994,953.715 260.533,954.688L260.533,995.007L265.167,1003.99L272.097,1003.99L276.731,995.007L276.731,954.662C275.122,953.583 273.873,951.956 273.349,949.939C272.799,947.818 273.107,945.61 274.216,943.722C275.327,941.832 277.105,940.489 279.227,939.939C283.602,938.803 288.089,941.438 289.225,945.816C290.124,949.276 288.658,952.798 285.843,954.686L285.843,995.007L290.476,1003.99L297.408,1003.99L302.041,995.007L302.041,954.688C300.564,953.704 299.446,952.28 298.852,950.575C298.131,948.507 298.258,946.282 299.212,944.309C300.166,942.336 301.83,940.853 303.899,940.133C305.968,939.412 308.193,939.539 310.165,940.492C312.138,941.446 313.621,943.11 314.343,945.179C315.063,947.248 314.935,949.473 313.982,951.446C313.336,952.782 312.357,953.887 311.153,954.69L311.153,995.007L315.787,1003.99L318.175,1003.99C327.52,1003.99 335.123,1011.59 335.123,1020.93L335.123,1023.32L344.121,1027.96L370.171,1027.96L433.336,950.262C433.303,950.152 433.252,950.052 433.223,949.94C432.086,945.561 434.722,941.076 439.1,939.939C443.48,938.8 447.962,941.438 449.099,945.815C450.236,950.193 447.6,954.679 443.223,955.816C442.534,955.994 441.844,956.08 441.164,956.08C440.906,956.08 440.656,956.04 440.401,956.016L374.507,1037.08L344.088,1037.08L335.123,1041.7L335.123,1048.63L344.122,1053.27L384.14,1053.27L468.023,950.215C467.995,950.122 467.961,950.033 467.936,949.939C467.386,947.818 467.694,945.61 468.804,943.722C469.914,941.832 471.693,940.489 473.813,939.939C475.935,939.39 478.14,939.696 480.031,940.806C481.92,941.916 483.262,943.696 483.812,945.816C484.95,950.193 482.313,954.679 477.936,955.816C477.249,955.994 476.552,956.082 475.862,956.082C475.587,956.082 475.314,956.055 475.042,956.029L388.472,1062.39L344.086,1062.39L335.123,1067.01L335.123,1073.94L344.104,1078.58L388.342,1078.58L474.73,1175.08C476.561,1174.82 478.412,1175.18 480.031,1176.13ZM227.524,946.03C227.031,946.87 226.894,947.851 227.139,948.793C227.643,950.738 229.637,951.913 231.584,951.406C233.529,950.901 234.701,948.907 234.195,946.961C233.769,945.321 232.287,944.232 230.667,944.232C230.364,944.232 230.057,944.269 229.751,944.349C228.809,944.593 228.018,945.191 227.524,946.03ZM182.414,1061.35C184.358,1060.85 185.53,1058.85 185.024,1056.9C184.599,1055.27 183.116,1054.17 181.497,1054.17C181.194,1054.17 180.887,1054.21 180.581,1054.29C179.638,1054.54 178.847,1055.13 178.354,1055.97C177.861,1056.81 177.724,1057.8 177.968,1058.74C178.473,1060.68 180.463,1061.86 182.414,1061.35ZM182.414,1111.97C184.358,1111.46 185.53,1109.47 185.024,1107.53C184.78,1106.58 184.183,1105.79 183.344,1105.3C182.777,1104.96 182.144,1104.8 181.502,1104.8C181.195,1104.8 180.886,1104.83 180.581,1104.91C179.638,1105.16 178.847,1105.75 178.354,1106.59C177.861,1107.43 177.724,1108.41 177.968,1109.36C178.473,1111.3 180.467,1112.48 182.414,1111.97ZM440.245,944.349C438.3,944.855 437.127,946.848 437.632,948.793C438.138,950.738 440.13,951.909 442.077,951.406C444.023,950.901 445.195,948.907 444.691,946.96C444.186,945.017 442.196,943.841 440.245,944.349ZM252.543,946.654C252.217,947.571 252.267,948.561 252.684,949.441C253.101,950.32 253.836,950.984 254.753,951.312C255.671,951.637 256.661,951.588 257.541,951.171C258.42,950.753 259.085,950.018 259.411,949.101C259.738,948.183 259.687,947.194 259.27,946.314C258.853,945.435 258.117,944.77 257.2,944.443C256.8,944.301 256.387,944.23 255.974,944.23C255.442,944.23 254.91,944.349 254.414,944.584C253.534,945.001 252.87,945.737 252.543,946.654ZM278.145,946.03C277.651,946.87 277.514,947.851 277.759,948.793C278.264,950.739 280.261,951.912 282.203,951.406C284.149,950.901 285.321,948.906 284.816,946.96C284.39,945.321 282.906,944.232 281.286,944.232C280.984,944.232 280.677,944.269 280.371,944.349C279.429,944.593 278.638,945.191 278.145,946.03ZM309.925,1184.69C310.322,1183.8 310.351,1182.81 310.004,1181.9C309.656,1180.99 308.976,1180.27 308.087,1179.88C307.611,1179.66 307.105,1179.56 306.598,1179.56C306.159,1179.56 305.721,1179.63 305.298,1179.8C304.388,1180.14 303.669,1180.82 303.271,1181.71C302.449,1183.55 303.273,1185.71 305.107,1186.53C306.945,1187.35 309.104,1186.53 309.925,1184.69ZM233.81,1185.05C234.304,1184.21 234.441,1183.23 234.195,1182.29C233.95,1181.34 233.353,1180.55 232.514,1180.06C231.947,1179.73 231.315,1179.56 230.673,1179.56C230.367,1179.56 230.056,1179.6 229.751,1179.67C228.809,1179.92 228.018,1180.52 227.524,1181.36C227.031,1182.19 226.894,1183.18 227.139,1184.12C227.383,1185.06 227.98,1185.85 228.819,1186.35C229.661,1186.84 230.641,1186.98 231.584,1186.73C232.526,1186.49 233.317,1185.89 233.81,1185.05ZM441.168,1179.58C440.881,1179.58 440.591,1179.62 440.304,1179.69C439.358,1179.91 438.557,1180.5 438.05,1181.33C437.542,1182.16 437.389,1183.14 437.618,1184.09C438.091,1186.04 440.068,1187.24 442.018,1186.77C442.964,1186.54 443.766,1185.96 444.273,1185.13C444.781,1184.3 444.933,1183.32 444.705,1182.37C444.475,1181.43 443.891,1180.62 443.06,1180.12C442.481,1179.77 441.83,1179.58 441.168,1179.58ZM184.639,1084.98C185.132,1084.14 185.269,1083.16 185.024,1082.21C184.78,1081.27 184.183,1080.48 183.344,1079.99C182.777,1079.65 182.144,1079.49 181.502,1079.49C181.195,1079.49 180.886,1079.52 180.581,1079.6C179.638,1079.85 178.847,1080.44 178.354,1081.29C177.861,1082.12 177.724,1083.11 177.968,1084.05C178.213,1084.99 178.81,1085.78 179.649,1086.28C180.487,1086.77 181.468,1086.9 182.413,1086.66C183.356,1086.41 184.146,1085.82 184.639,1084.98ZM283.111,1186.36C284.85,1185.36 285.449,1183.12 284.444,1181.38C283.439,1179.64 281.206,1179.04 279.464,1180.05C277.723,1181.05 277.125,1183.29 278.13,1185.03C279.136,1186.77 281.369,1187.37 283.111,1186.36ZM472.732,946.03C472.239,946.87 472.102,947.851 472.346,948.793C472.591,949.736 473.188,950.526 474.028,951.02C474.867,951.513 475.849,951.651 476.79,951.406C478.735,950.901 479.909,948.907 479.403,946.96C479.158,946.018 478.561,945.228 477.721,944.735C477.154,944.401 476.522,944.23 475.881,944.23C475.573,944.23 475.265,944.269 474.958,944.349C474.016,944.593 473.225,945.191 472.732,946.03ZM303.315,946.291C302.891,947.168 302.834,948.157 303.155,949.076C303.475,949.996 304.134,950.736 305.011,951.16C305.887,951.583 306.876,951.64 307.796,951.32C308.716,950.999 309.456,950.341 309.88,949.463C310.303,948.587 310.36,947.598 310.04,946.679C309.719,945.758 309.061,945.019 308.183,944.595C307.681,944.353 307.142,944.23 306.6,944.23C306.196,944.23 305.791,944.298 305.398,944.435C304.478,944.755 303.738,945.415 303.315,946.291ZM182.413,1036.04C184.358,1035.53 185.531,1033.54 185.024,1031.6C184.78,1030.65 184.183,1029.86 183.344,1029.37C182.777,1029.04 182.144,1028.87 181.503,1028.87C181.196,1028.87 180.886,1028.9 180.581,1028.98C179.638,1029.23 178.847,1029.83 178.354,1030.66C177.861,1031.5 177.724,1032.49 177.968,1033.43C178.213,1034.37 178.81,1035.16 179.649,1035.65C180.49,1036.15 181.471,1036.28 182.413,1036.04ZM259.12,1185.05C259.614,1184.21 259.75,1183.23 259.506,1182.29C259.26,1181.34 258.663,1180.55 257.824,1180.06C257.257,1179.73 256.624,1179.56 255.983,1179.56C255.677,1179.56 255.366,1179.6 255.061,1179.67C254.119,1179.92 253.327,1180.52 252.833,1181.36C252.34,1182.19 252.204,1183.18 252.449,1184.12C252.693,1185.06 253.29,1185.85 254.13,1186.35C254.97,1186.84 255.951,1186.98 256.893,1186.73C257.836,1186.49 258.627,1185.89 259.12,1185.05ZM220.974,1017.38C220.974,1014.91 218.967,1012.9 216.493,1012.9C214.017,1012.9 212.01,1014.91 212.01,1017.38C212.01,1019.86 214.017,1021.87 216.493,1021.87C218.967,1021.87 220.974,1019.86 220.974,1017.38ZM479.017,1185.05C479.51,1184.21 479.647,1183.23 479.403,1182.29C479.158,1181.34 478.561,1180.55 477.721,1180.06C477.155,1179.73 476.523,1179.56 475.882,1179.56C475.574,1179.56 475.266,1179.6 474.958,1179.67C474.016,1179.92 473.225,1180.52 472.732,1181.36C472.239,1182.19 472.102,1183.18 472.346,1184.12C472.591,1185.06 473.188,1185.85 474.028,1186.35C474.869,1186.84 475.852,1186.98 476.79,1186.73C477.734,1186.49 478.525,1185.89 479.017,1185.05ZM317.042,1105.42L317.042,1037.01C317.042,1029.15 310.653,1022.76 302.8,1022.76L234.382,1022.76C226.53,1022.76 220.141,1029.15 220.141,1037.01L220.141,1105.42C220.141,1113.28 226.53,1119.66 234.382,1119.66L302.8,1119.66C310.653,1119.66 317.042,1113.28 317.042,1105.42Z"/>
                </g>
            </g>
            <g transform="matrix(0.0230976,0,0,0.021849,11639.1,4571.2)">
                <path d="M-9120.44,13590.7L-13090.7,13590.7L-13409.9,13231.5L-12911.7,12573.8C-12857.5,12248.3 -12780.2,12007 -12679.8,11849.7C-12579.5,11692.4 -12495.4,11571.7 -12427.6,11487.6C-12359.8,11403.6 -12269,11319.5 -12155.1,11235.4C-12041.2,11151.4 -11939.5,11080.8 -11850,11023.9C-11760.5,10966.9 -11635.7,10899.1 -11475.7,10820.5C-11315.7,10741.9 -11181.5,10678.1 -11073,10629.3C-10964.5,10580.5 -10810,10512.7 -10609.3,10425.9C-10408.6,10339.1 -10243.2,10265.9 -10113,10206.3L-10039.8,9766.92C-10267.6,9739.8 -10479.1,9726.24 -10674.4,9726.24C-11146.2,9726.24 -11634.4,9785.9 -12138.8,9905.23L-12458,9545.99L-12114.4,8693C-11431,8486.89 -10769.3,8383.84 -10129.3,8383.84C-9402.48,8383.84 -9201.78,8162.1 -8973.98,8357.36C-8625.79,8588.51 -8371.95,9152.67 -8371.95,9535.05C-8371.95,9917.43 -8424.83,10242.9 -8530.6,10511.3C-8636.36,10779.8 -8839.76,11014.4 -9140.78,11215.1C-9441.8,11415.8 -9689.94,11556.8 -9885.2,11638.1C-10210.6,11773.7 -10593,11914.8 -11032.3,12061.2L-11073,12289L-9211.81,11929.8L-8892.64,12289C-8342.89,12329.4 -7719.83,12364.8 -7326.74,12375.3C-6958.05,12385.1 -6590.22,12329.7 -6346.14,12297.1L-6281.06,11890.4L-6842.42,11825.3C-7390.23,11760.2 -7771.26,11666.6 -7985.5,11544.6C-8199.74,11422.6 -8611.17,11032.1 -8611.17,10750.1C-8611.17,10647 -8296.01,10729.7 -8274.32,10621.2L-7826.85,8505.88L-4631.37,8146.63L-4312.2,8505.88L-4678.31,9905.23L-6484.45,9791.33L-6573.94,10287.6L-6126.48,10344.6C-5556.97,10420.5 -5478.4,10205.1 -5237.37,10375C-4799.59,10683.7 -4572.54,11181.2 -4572.54,11536.5C-4572.54,11891.7 -4625.43,12207.7 -4731.19,12484.3C-4836.96,12760.9 -4971.2,12976.5 -5133.91,13131.1C-5296.63,13285.6 -5498.66,13407.7 -5740.03,13497.2C-5981.39,13586.7 -6207.83,13645 -6419.36,13672.1C-6630.89,13699.2 -6872.26,13712.8 -7143.45,13712.8C-7816,13712.8 -8228.83,13700 -8991.5,13584.9L-9119.89,13587.6L-9120.44,13590.7Z"/>
            </g>
            <g transform="matrix(0.0230976,0,0,0.021849,11631.8,4563.35)">
                <path d="M-12138.8,9905.23L-12114.4,8693C-11431,8486.89 -10769.3,8383.84 -10129.3,8383.84C-9402.48,8383.84 -8925.18,8481.47 -8697.38,8676.73C-8480.42,8866.56 -8371.95,9152.67 -8371.95,9535.05C-8371.95,9917.43 -8424.83,10242.9 -8530.6,10511.3C-8636.36,10779.8 -8839.76,11014.4 -9140.78,11215.1C-9441.8,11415.8 -9689.94,11556.8 -9885.2,11638.1C-10210.6,11773.7 -10593,11914.8 -11032.3,12061.2L-11073,12289L-8892.64,12289L-9120.44,13590.7L-13090.7,13590.7L-12911.7,12573.8C-12857.5,12248.3 -12780.2,12007 -12679.8,11849.7C-12579.5,11692.4 -12495.4,11571.7 -12427.6,11487.6C-12359.8,11403.6 -12269,11319.5 -12155.1,11235.4C-12041.2,11151.4 -11939.5,11080.8 -11850,11023.9C-11760.5,10966.9 -11635.7,10899.1 -11475.7,10820.5C-11315.7,10741.9 -11181.5,10678.1 -11073,10629.3C-10964.5,10580.5 -10810,10512.7 -10609.3,10425.9C-10408.6,10339.1 -10243.2,10265.9 -10113,10206.3L-10039.8,9766.92C-10267.6,9739.8 -10479.1,9726.24 -10674.4,9726.24C-11146.2,9726.24 -11634.4,9785.9 -12138.8,9905.23ZM-8991.5,13584.9L-8767.52,12293.9C-8217.77,12334.3 -7719.83,12364.8 -7326.74,12375.3C-6958.05,12385.1 -6590.22,12329.7 -6346.14,12297.1L-6281.06,11890.4L-6842.42,11825.3C-7390.23,11760.2 -7771.26,11666.6 -7985.5,11544.6C-8199.74,11422.6 -8306.86,11220.5 -8306.86,10938.5C-8306.86,10835.4 -8296.01,10729.7 -8274.32,10621.2L-7826.85,8505.88L-4312.2,8505.88L-4678.31,9905.23L-6484.45,9791.33L-6573.94,10287.6L-6126.48,10344.6C-5556.97,10420.5 -5155.61,10549.3 -4922.38,10731C-4689.16,10912.7 -4572.54,11181.2 -4572.54,11536.5C-4572.54,11891.7 -4625.43,12207.7 -4731.19,12484.3C-4836.96,12760.9 -4971.2,12976.5 -5133.91,13131.1C-5296.63,13285.6 -5498.66,13407.7 -5740.03,13497.2C-5981.39,13586.7 -6207.83,13645 -6419.36,13672.1C-6630.89,13699.2 -6872.26,13712.8 -7143.45,13712.8C-7816,13712.8 -8228.83,13700 -8991.5,13584.9Z" style="fill:rgb(227,225,201);"/>
            </g>
        </g>
    </g>
</svg>
